<?xml version="1.0" encoding="utf-8"?>
<!-- Generator: Adobe Illustrator 23.0.6, SVG Export Plug-In . SVG Version: 6.00 Build 0)  -->
<svg version="1.1" id="Layer_1" xmlns="http://www.w3.org/2000/svg" xmlns:xlink="http://www.w3.org/1999/xlink" x="0px" y="0px"
	 viewBox="0 0 24 24" style="enable-background:new 0 0 24 24;" xml:space="preserve">
<style type="text/css">
	.st0{fill:none;}
	.st1{fill:#4F3939;}
</style>
<path class="st0" d="M0,0h24v24H0V0z"/>
<path class="st1" d="M6.5,14.4c-2,0-3.7,1.6-3.7,3.7c0,1.6-1.4,2.4-2.4,2.4C1.5,22,3.4,23,5.3,23c2.7,0,4.9-2.2,4.9-4.9
	C10.2,16.1,8.5,14.4,6.5,14.4z M23.3,3l-1.6-1.6c-0.5-0.5-1.2-0.5-1.7,0L8.9,12.3l3.4,3.4L23.3,4.7C23.7,4.2,23.7,3.5,23.3,3z"/>
</svg>
